<?xml version="1.0" encoding="UTF-8" standalone="no"?>
<!DOCTYPE svg PUBLIC "-//W3C//DTD SVG 1.1//EN" "http://www.w3.org/Graphics/SVG/1.1/DTD/svg11.dtd">
<!-- Generated by graphviz version 2.36.0 (20140111.2315)
 -->
<!-- Title: system_diagram Pages: 1 -->
<svg width="618pt" height="260pt" viewBox="0.00 0.00 618.00 260.00" xmlns="http://www.w3.org/2000/svg" xmlns:xlink="http://www.w3.org/1999/xlink">
<g id="graph0" class="graph" transform="scale(1 1) rotate(0) translate(4 256)">
<title>system_diagram</title>
<polygon fill="white" stroke="none" points="-4,4 -4,-256 614,-256 614,4 -4,4"/>
<!-- dart -->
<g id="node1" class="node"><title>dart</title>
<polygon fill="none" stroke="black" points="76.25,-180 -0.25,-180 -0.25,-144 76.25,-144 76.25,-180"/>
<text text-anchor="middle" x="38" y="-158.3" font-family="Times,serif" font-size="14.00">Dart Client</text>
</g>
<!-- flask -->
<g id="node2" class="node"><title>flask</title>
<polygon fill="none" stroke="black" points="260,-252 206,-252 206,-216 260,-216 260,-252"/>
<text text-anchor="middle" x="233" y="-230.3" font-family="Times,serif" font-size="14.00">Flask</text>
</g>
<!-- flask&#45;&gt;dart -->
<g id="edge4" class="edge"><title>flask-&gt;dart</title>
<path fill="none" stroke="black" d="M196.254,-219.809C165.055,-208.61 120.06,-192.457 86.0161,-180.237"/>
<polygon fill="black" stroke="black" points="195.292,-223.182 205.886,-223.267 197.657,-216.594 195.292,-223.182"/>
<polygon fill="black" stroke="black" points="86.873,-176.826 76.2785,-176.741 84.5079,-183.414 86.873,-176.826"/>
</g>
<!-- other_client -->
<g id="node3" class="node"><title>other_client</title>
<polygon fill="none" stroke="black" points="205,-180 95,-180 95,-144 205,-144 205,-180"/>
<text text-anchor="middle" x="150" y="-158.3" font-family="Times,serif" font-size="14.00">Other API Client</text>
</g>
<!-- flask&#45;&gt;other_client -->
<g id="edge5" class="edge"><title>flask-&gt;other_client</title>
<path fill="none" stroke="black" d="M204.582,-209.033C196.038,-201.827 186.669,-193.926 178.143,-186.735"/>
<polygon fill="black" stroke="black" points="202.582,-211.925 212.483,-215.697 207.095,-206.574 202.582,-211.925"/>
<polygon fill="black" stroke="black" points="180.182,-183.876 170.281,-180.104 175.669,-189.227 180.182,-183.876"/>
</g>
<!-- redis -->
<g id="node4" class="node"><title>redis</title>
<polygon fill="none" stroke="black" points="399,-180 345,-180 345,-144 399,-144 399,-180"/>
<text text-anchor="middle" x="372" y="-158.3" font-family="Times,serif" font-size="14.00">Redis</text>
</g>
<!-- flask&#45;&gt;redis -->
<g id="edge2" class="edge"><title>flask-&gt;redis</title>
<path fill="none" stroke="black" d="M269.172,-214.784C289.72,-204.436 315.361,-191.523 335.898,-181.181"/>
<polygon fill="black" stroke="black" points="267.488,-211.713 260.131,-219.337 270.636,-217.965 267.488,-211.713"/>
<polygon fill="black" stroke="black" points="337.581,-184.252 344.938,-176.628 334.432,-178 337.581,-184.252"/>
</g>
<!-- postgres -->
<g id="node5" class="node"><title>postgres</title>
<polygon fill="none" stroke="black" points="342.5,-36 281.5,-36 281.5,-0 342.5,-0 342.5,-36"/>
<text text-anchor="middle" x="312" y="-14.3" font-family="Times,serif" font-size="14.00">Postgres</text>
</g>
<!-- flask&#45;&gt;postgres -->
<g id="edge3" class="edge"><title>flask-&gt;postgres</title>
<path fill="none" stroke="black" d="M230.5,-205.465C228.7,-171.949 229.713,-114.563 252,-72 257.893,-60.7453 267.227,-50.7708 276.794,-42.5972"/>
<polygon fill="black" stroke="black" points="227.035,-206.115 231.191,-215.861 234.02,-205.65 227.035,-206.115"/>
<polygon fill="black" stroke="black" points="279.202,-45.1527 284.814,-36.1663 274.823,-39.6915 279.202,-45.1527"/>
</g>
<!-- worker_favicon -->
<g id="node7" class="node"><title>worker_favicon</title>
<polygon fill="none" stroke="black" points="362.25,-108 261.75,-108 261.75,-72 362.25,-72 362.25,-108"/>
<text text-anchor="middle" x="312" y="-86.3" font-family="Times,serif" font-size="14.00">Foobar Worker</text>
</g>
<!-- redis&#45;&gt;worker_favicon -->
<g id="edge6" class="edge"><title>redis-&gt;worker_favicon</title>
<path fill="none" stroke="black" d="M357.169,-143.697C349.975,-135.305 341.203,-125.07 333.31,-115.861"/>
<polygon fill="black" stroke="black" points="335.826,-113.419 326.661,-108.104 330.511,-117.975 335.826,-113.419"/>
</g>
<!-- worker_index -->
<g id="node8" class="node"><title>worker_index</title>
<polygon fill="none" stroke="black" points="592.25,-108 499.75,-108 499.75,-72 592.25,-72 592.25,-108"/>
<text text-anchor="middle" x="546" y="-86.3" font-family="Times,serif" font-size="14.00">Index Worker</text>
</g>
<!-- redis&#45;&gt;worker_index -->
<g id="edge7" class="edge"><title>redis-&gt;worker_index</title>
<path fill="none" stroke="black" d="M399.188,-150.062C424.481,-139.887 462.846,-124.453 494.015,-111.913"/>
<polygon fill="black" stroke="black" points="495.464,-115.103 503.435,-108.124 492.851,-108.609 495.464,-115.103"/>
</g>
<!-- worker_splash -->
<g id="node9" class="node"><title>worker_splash</title>
<polygon fill="none" stroke="black" points="481,-108 381,-108 381,-72 481,-72 481,-108"/>
<text text-anchor="middle" x="431" y="-86.3" font-family="Times,serif" font-size="14.00">Bazbat Worker</text>
</g>
<!-- redis&#45;&gt;worker_splash -->
<g id="edge8" class="edge"><title>redis-&gt;worker_splash</title>
<path fill="none" stroke="black" d="M386.584,-143.697C393.658,-135.305 402.283,-125.07 410.045,-115.861"/>
<polygon fill="black" stroke="black" points="412.815,-118.006 416.583,-108.104 407.463,-113.495 412.815,-118.006"/>
</g>
<!-- solr -->
<g id="node6" class="node"><title>solr</title>
<polygon fill="none" stroke="black" points="610,-36 556,-36 556,-0 610,-0 610,-36"/>
<text text-anchor="middle" x="583" y="-14.3" font-family="Times,serif" font-size="14.00">Solr</text>
</g>
<!-- solr&#45;&gt;flask -->
<g id="edge1" class="edge"><title>solr-&gt;flask</title>
<path fill="none" stroke="black" d="M593.644,-36.2953C603.925,-55.4637 615.924,-86.504 601,-108 525.108,-217.313 347.735,-232.386 270.287,-233.545"/>
<polygon fill="black" stroke="black" points="270.015,-230.047 260.043,-233.624 270.07,-237.047 270.015,-230.047"/>
</g>
<!-- worker_favicon&#45;&gt;postgres -->
<g id="edge9" class="edge"><title>worker_favicon-&gt;postgres</title>
<path fill="none" stroke="black" d="M312,-71.6966C312,-63.9827 312,-54.7125 312,-46.1124"/>
<polygon fill="black" stroke="black" points="315.5,-46.1043 312,-36.1043 308.5,-46.1044 315.5,-46.1043"/>
</g>
<!-- worker_index&#45;&gt;solr -->
<g id="edge10" class="edge"><title>worker_index-&gt;solr</title>
<path fill="none" stroke="black" d="M555.146,-71.6966C559.403,-63.6436 564.556,-53.8945 569.266,-44.9824"/>
<polygon fill="black" stroke="black" points="572.38,-46.5809 573.959,-36.1043 566.192,-43.3097 572.38,-46.5809"/>
</g>
<!-- worker_splash&#45;&gt;postgres -->
<g id="edge11" class="edge"><title>worker_splash-&gt;postgres</title>
<path fill="none" stroke="black" d="M401.889,-71.8761C386.33,-62.7236 366.981,-51.3417 350.224,-41.485"/>
<polygon fill="black" stroke="black" points="351.617,-38.2432 341.223,-36.1898 348.067,-44.2768 351.617,-38.2432"/>
</g>
</g>
</svg>